<svg fill="none" height="114" viewBox="0 0 107 114" width="107" xmlns="http://www.w3.org/2000/svg"><g stroke="#000"><circle cx="67" cy="40" r="37.5" stroke-width="5"/><path d="m40.832 69.7011-39.00002 41.9999" stroke-width="5"/><path d="m35 39.5h11"/><path d="m45.4096 39.7133 7 10"/><path d="m52.5301 49.8291 4-11"/><path d="m0-.5h13" transform="matrix(-1 0 0 1 99 39)"/><path d="m86.4374 38.2422-6.0909 11"/><path d="m79.5611 49.2394-6-11"/><g stroke-linecap="round" stroke-width="3"><path d="m58.2783 36c-.5986-.5232-2.1618-2.3777-.6149-2.8556.8129-.251 2.3366-.359 2.3366 1.2831 0 .6954-2.3718.3909-2.8285.357-.1945-.0145-.1944-.6794 0-.6946.285-.0224.5754 0 .8609 0"/><path d="m69.738 36c-1.1967-1.161-.9851-3.3963.9809-3.8028.7635-.1579 3.2811-.5432 3.2811.541 0 2.1695-2.4783 2.2594-4.2282 2.2594-.9729 0-.7243-.716.1184-.716"/><path d="m59 49c3.1594-.5282 5.5967-2.0493 7.7257-4.3019 1.0531-1.1142 1.4497-2.5032 2.2743-3.6981"/></g></g></svg>