<svg fill="none" height="45" viewBox="0 0 45 45" width="45" xmlns="http://www.w3.org/2000/svg"><g fill="#000"><path d="m3.69135.509884c-1.21289.369141-2.28516 1.283206-2.917969 2.478516-.28125.52734-.333984 1.10742-.386719 4.07812-.052734 3.30468-.052734 3.46288.298828 3.81448.45703.457.9668.4746 1.42383.0176.3164-.3165.35156-.5801.35156-3.48051 0-3.48047.12305-3.90235 1.26563-4.60547.52734-.31641.89648-.35156 3.70898-.35156 2.88281 0 3.14651-.03516 3.46291-.35157.1933-.19336.3515-.50976.3515-.70312s-.1582-.509767-.3515-.703127c-.334-.333984-.5801-.351562-3.5508-.333984-1.77539 0-3.41016.070312-3.65625.140625z"/><path d="m34.119.685664c-.457.457036-.4746.966796-.0176 1.423826.3165.31641.5801.35156 3.4805.35156 3.4805 0 3.9024.12305 4.6055 1.26563.3164.52734.3515.89648.3515 3.69141 0 2.90041.0352 3.16401.3516 3.48051.457.457.9668.4394 1.4238-.0176.3516-.3516.3516-.5098.2989-3.81448-.0528-3.84961-.1582-4.2539-1.4063-5.41406-1.1953-1.142577-1.4765-1.21289-5.2734-1.265624-3.3047-.052734-3.4629-.052734-3.8145.298828z"/><path d="m13.0078 15.1172c-.3164.3164-.3516.5801-.3516 2.4609 0 1.8809.0352 2.1446.3516 2.461.1934.1933.5098.3515.7031.3515.1934 0 .5098-.1582.7032-.3515.3164-.3164.3515-.5801.3515-2.461 0-1.8808-.0351-2.1445-.3515-2.4609-.1934-.1934-.5098-.3516-.7032-.3516-.1933 0-.5097.1582-.7031.3516z"/><path d="m21.7968 15.1172c-.334.3339-.3515.58-.3515 4.5703v4.2011l-1.3184.7383c-1.3887.7559-1.7051 1.1953-1.3359 1.8985.3691.6855.914.6328 2.7773-.3164.9668-.4747 1.8105-1.002 1.8809-1.1602.0527-.1582.1054-2.3906.1054-4.9395 0-4.4121-.0175-4.6582-.3515-4.9921-.1934-.1934-.5098-.3516-.7032-.3516-.1933 0-.5097.1582-.7031.3516z"/><path d="m30.5859 15.1172c-.3164.3164-.3515.5801-.3515 2.4609 0 1.8809.0351 2.1446.3515 2.461.1934.1933.5098.3515.7032.3515.1933 0 .5097-.1582.7031-.3515.3164-.3164.3516-.5801.3516-2.461 0-1.8808-.0352-2.1445-.3516-2.4609-.1934-.1934-.5098-.3516-.7031-.3516-.1934 0-.5098.1582-.7032.3516z"/><path d="m14.0624 30.5859c-.5273.5274-.4394 1.0371.334 1.7403 1.0195.9316 2.4609 1.7402 4.1836 2.3554 1.4414.5098 1.7227.545 3.9199.545 2.1973 0 2.4785-.0352 3.9199-.545 2.4786-.8789 4.8692-2.5312 4.8692-3.3574 0-.4746-.5801-1.0898-1.0196-1.0898-.1757 0-.7382.3164-1.2656.7207-4.0605 3.041-8.9472 3.041-13.0078 0-1.0722-.8086-1.4238-.8789-1.9336-.3692z"/><path d="m.68549 34.1192c-.351562.3516-.351562.5098-.298828 3.8145.052735 3.7968.123047 4.0781 1.265628 5.2734 1.16015 1.248 1.56445 1.3535 5.41406 1.4062 3.30465.0528 3.46285.0528 3.81445-.2988.457-.457.4746-.9668.0176-1.4238-.3164-.3164-.5801-.3516-3.46291-.3516-2.8125 0-3.18164-.0351-3.70898-.3515-1.14258-.7032-1.26563-1.125-1.26563-4.6231 0-2.8828-.03516-3.1465-.35156-3.4629-.45703-.457-.9668-.4394-1.42383.0176z"/><path d="m42.8905 34.1016c-.3164.3164-.3516.5801-.3516 3.4629 0 3.4981-.123 3.9199-1.2656 4.6231-.5273.3164-.8965.3515-3.6914.3515-2.9004 0-3.164.0352-3.4805.3516-.457.457-.4394.9668.0176 1.4238.3516.3516.5098.3516 3.8145.2988 3.8496-.0527 4.2539-.1582 5.414-1.4062 1.1426-1.1953 1.2129-1.4766 1.2657-5.2734.0527-3.3047.0527-3.4629-.2989-3.8145-.457-.457-.9668-.4746-1.4238-.0176z"/></g></svg>