<svg fill="none" height="115" viewBox="0 0 203 115" width="203" xmlns="http://www.w3.org/2000/svg" xmlns:xlink="http://www.w3.org/1999/xlink"><clipPath id="a"><path d="m0 0h5.59209v6h-5.59209z" transform="matrix(-.0086829 -.9999623 .9999623 -.0086829 143.049 22.644)"/></clipPath><clipPath id="b"><path d="m0 0h5.59205v5.3878h-5.59205z" transform="matrix(-.00797464 -.999968 .999955 -.00945524 148.045 58.644)"/></clipPath><clipPath id="c"><path d="m0 0h5.59209v6h-5.59209z" transform="matrix(-.0086829 -.9999623 .9999623 -.0086829 144.049 101.644)"/></clipPath><rect height="111" rx="10" stroke="#fff" stroke-width="4" width="63" x="137" y="2"/><path d="m202.5 15v18" stroke="#fff"/><path d="m202.5 35v7" stroke="#fff"/><rect fill="#fff" height="1" rx=".5" width="10" x="163" y="1.5"/><rect fill="#fff" height="1" rx=".5" width="1" x="175" y="1.5"/><path d="m139 12c0-4.41828 3.582-8 8-8h43c4.418 0 8 3.58172 8 8z" fill="#e8ac13"/><path d="m144.625 9.75h3.75v-.41667h-3.75zm0-1.04167h3.75v-.41666h-3.75zm0-1.45833v.41667h3.75v-.41667z" fill="#fff"/><path d="m151 19h39v2h-39z" fill="#fff"/><path d="m151 23h26v2h-26z" fill="#fff"/><path d="m149 33h41v2h-41z" fill="#fff"/><path d="m149 37h28v2h-28z" fill="#fff"/><g clip-path="url(#a)"><path d="m143.992 19.9165-.439.4163 2.495 2.2851 2.455-2.3281-.446-.4086-2.016 1.9119z" fill="#fff"/></g><path d="m155 55h30v2h-30z" fill="#fff"/><path d="m155 59h22v2h-22z" fill="#fff"/><g clip-path="url(#b)"><path d="m148.892 55.9167-.394.4162 2.24 2.2856 2.204-2.3276-.4-.4087-1.81 1.9115z" fill="#fff"/></g><g fill="#e8ac13"><path d="m145.5 26h1v71h-1z" fill-opacity=".7"/><path d="m146.5 30h45.5v1h-45.5z" fill-opacity=".7"/><path d="m150.5 62h1v35h-1z" fill-opacity=".7"/><path d="m151.5 65h40.5v1h-40.5z" fill-opacity=".7"/><path d="m146.5 61h5v1h-5z" fill-opacity=".7"/><path d="m143 25h3.5v1h-3.5z" fill-opacity=".7"/></g><path d="m152 98h39v2h-39z" fill="#fff"/><path d="m152 102h26v2h-26z" fill="#fff"/><g clip-path="url(#c)"><path d="m144.992 98.9165-.439.4163 2.495 2.2852 2.455-2.3282-.446-.4086-2.016 1.9118z" fill="#fff"/></g><path d="m146.5 105h1v6h-1z" fill="#e8ac13" fill-opacity=".7"/><path d="m147.5 109h45.5v1h-45.5z" fill="#e8ac13" fill-opacity=".7"/><path d="m144 104h3.5v1h-3.5z" fill="#e8ac13" fill-opacity=".7"/><path d="m149 41h40v.5h-40z" fill="#c4c4c4" fill-opacity=".7"/><path d="m149 43h41v2h-41z" fill="#fff"/><path d="m149 47h28v2h-28z" fill="#fff"/><path d="m149 51h40v.5h-40z" fill="#c4c4c4" fill-opacity=".7"/><path d="m154 68h35v2h-35z" fill="#fff"/><path d="m154 72h23v2h-23z" fill="#fff"/><path d="m159 78h30v2h-30z" fill="#fff"/><path d="m159 82h18v2h-18z" fill="#fff"/><path d="m154 76h35v.5h-35z" fill="#c4c4c4" fill-opacity=".7"/><path d="m155.998 78.3333c-.92 0-1.665.7467-1.665 1.6667s.745 1.6666 1.665 1.6666c.922 0 1.669-.7466 1.669-1.6666s-.747-1.6667-1.669-1.6667zm.002 3c-.737 0-1.333-.5967-1.333-1.3333 0-.7367.596-1.3334 1.333-1.3334s1.333.5967 1.333 1.3334c0 .7366-.596 1.3333-1.333 1.3333z" fill="#fff"/><path d="m156.083 79.1667h-.25v1l.875.525.125-.205-.75-.445z" fill="#fff"/><path d="m37 50c-16.8182 0-31.18091 10.574-37 25.5 5.81909 14.926 20.1818 25.5 37 25.5s31.1809-10.574 37-25.5c-5.8191-14.926-20.1818-25.5-37-25.5zm0 42.5c-9.2836 0-16.8182-7.616-16.8182-17s7.5346-17 16.8182-17 16.8182 7.616 16.8182 17-7.5346 17-16.8182 17zm3-28.5c-5.5836 0-9.5 5.856-9.5 11.5s3.9164 8.5 9.5 8.5 9-2.856 9-8.5-3.4164-11.5-9-11.5z" fill="#c4c4c4"/><path d="m77 62.4565h55v2h-55z" fill="#e8ac13" fill-opacity=".5" transform="matrix(.6966707 -.71739107 .71739107 .6966707 -21.449379 74.183999)"/><path d="m80 68.1953h55v2h-55z" fill="#e8ac13" fill-opacity=".5" transform="matrix(.9498717 -.31263998 .31263998 .9498717 -17.310313 28.429713)"/><path d="m83 74.3735h55v2h-55z" fill="#e8ac13" fill-opacity=".5" transform="matrix(.99811712 -.06133685 .06133685 .99811712 -4.405557 5.230995)"/><path d="m121.074 26.1166.091 2.9048 2.791.8112-2.735.984.091 2.9047-1.781-2.2966-2.734.984 1.633-2.4034-1.78-2.2966 2.79.8113z" fill="#faff0a"/><path d="m151.107 11.4114 2.075 2.0349 2.576-1.3445-1.294 2.6021 2.075 2.0349-2.875-.4267-1.294 2.6022-.482-2.8659-2.875-.4267 2.577-1.3445z" fill="#faff0a"/><path d="m117.074 46.1166.091 2.9048 2.791.8112-2.735.984.091 2.9047-1.781-2.2966-2.734.984 1.633-2.4034-1.78-2.2966 2.79.8113z" fill="#faff0a"/><path d="m129.434 68.2592 1.883 2.2134 2.687-1.1071-1.523 2.4751 1.883 2.2134-2.824-.6838-1.524 2.4751-.222-2.8976-2.825-.6837 2.687-1.1072z" fill="#faff0a"/><path d="m95.0741 44.1166.0908 2.9048 2.7907.8112-2.7345.984.0908 2.9047-1.7809-2.2966-2.7345.984 1.6339-2.4034-1.7808-2.2966 2.7906.8113z" fill="#faff0a"/><path d="m193.074 85.1166.091 2.9048 2.791.8112-2.735.984.091 2.9047-1.781-2.2966-2.734.984 1.633-2.4034-1.78-2.2966 2.79.8113z" fill="#faff0a"/></svg>