<svg fill="none" height="146" viewBox="0 0 149 146" width="149" xmlns="http://www.w3.org/2000/svg"><path d="m28 6h6v103h-6z" fill="#fff"/><path d="m1.0001 11.3544c25.9812-8.02221 49.8801-1.0203 58.3126 4.8493-6.9761-8.56393-33.829-22.53694-58.3126-4.8493z" fill="#e8ac13" stroke="#e8ac13"/><path d="m28 6h6v103h-6z" fill="#fff"/><path d="m1.0001 11.3544c25.9812-8.02221 49.8801-1.0203 58.3126 4.8493-6.9761-8.56393-33.829-22.53694-58.3126-4.8493z" fill="#e8ac13" stroke="#e8ac13"/><path d="m103.634 32.6698h6v103h-6z" fill="#fff" fill-opacity=".6" transform="matrix(.74564117 .66634769 -.66634769 .74564117 48.129669 -60.746425)"/><path d="m79.9336 18.6709c24.7184 11.3308 37.8724 32.4767 40.2484 42.4723.505-11.0342-10.206-39.3464-40.2484-42.4723z" fill="#e8ac13" fill-opacity=".6" stroke="#e8ac13" stroke-opacity=".6"/><g fill-opacity=".2"><path d="m142.992 112.932h6v103h-6z" fill="#fff" transform="matrix(.01224841 .99992499 -.99992499 .01224841 254.164103 -31.432511)"/><path d="m137.308 86c8.339 25.881 1.631 49.864-4.135 58.368 8.478-7.081 22.121-34.103 4.135-58.368z" fill="#e8ac13" stroke="#e8ac13" stroke-opacity=".2"/></g></svg>