<svg fill="none" height="111" viewBox="0 0 114 111" width="114" xmlns="http://www.w3.org/2000/svg"><g fill="#000"><path d="m30.4956 54.115c.0635-.8259-.5546-1.547-1.3806-1.6106l-13.4602-1.0354c-.826-.0635-1.5471.5546-1.6106 1.3806-.0636.8259.5545 1.547 1.3805 1.6106l11.9647.9203-.9204 11.9647c-.0635.826.5546 1.5471 1.3806 1.6106.8259.0636 1.547-.5545 1.6106-1.3805zm-21.51941 19.0239 21.00001-18-1.9524-2.2778-20.99999 18z"/><path d="m87.4948 58.1246c.0688-.8256-.5447-1.5506-1.3702-1.6194l-13.4534-1.1211c-.8256-.0688-1.5506.5447-1.6194 1.3702-.0688.8256.5447 1.5506 1.3703 1.6194l11.9585.9965-.9965 11.9586c-.0688.8256.5447 1.5506 1.3702 1.6194.8256.0688 1.5506-.5447 1.6194-1.3703zm-52.5259 45.0204 52-43.9999-1.9378-2.2902-52 44.0001z"/><path d="m106.498 10.0827c.045-.82717-.588-1.53475-1.415-1.58042l-13.4798-.74426c-.8271-.04568-1.5347.58785-1.5804 1.41502-.0457.82716.5879 1.53476 1.415 1.58046l11.9822.6615-.662 11.9818c-.046.8271.588 1.5347 1.415 1.5804s1.535-.5879 1.58-1.415zm-86.4974 78.0348 86.0004-77-2.002-2.23502-85.9996 77.00002z"/></g><path d="m48.3123 49.3904-5 4" stroke="#3889e8" stroke-opacity=".5"/><path d="m50.3322 50.3737-9 8" stroke="#3889e8" stroke-opacity=".5"/><path d="m52.3254 52.3796-7 6" stroke="#3889e8" stroke-opacity=".5"/><path d="m52.5972 44.9942.6062-.5522 4.6148 2.8979-2.397-4.9181.5914-.5388 2.7916 6.0196-.5027.458c-1.3367-.7844-2.8991-1.7373-4.6874-2.8588.9459 1.8798 1.7519 3.5219 2.4179 4.9262l-.4953.4512-5.7487-3.3259.5915-.5388 4.6813 2.8373zm7.179-5.6333 1.0069 5.8869 2.4321-2.2155.4243.4657-3.0679 2.7947-.4041-.4436-1.0023-5.9857-2.3656 2.1549-.4242-.4657 2.9496-2.687zm5.2593 2.8654-.547.4983-4.2628-4.6795.5471-.4983 1.8317 2.0108 2.373-2.1617-1.8317-2.0108.547-.4983 4.2628 4.6795-.547.4983-2.0068-2.203-2.3731 2.1617zm4.8009-4.3733-.5471.4983-4.2627-4.6795.547-.4983 1.8317 2.0108 2.3731-2.1617-1.8318-2.0108.5471-.4983 4.2628 4.6795-.5471.4983-2.0068-2.203-2.373 2.1617zm6.0497-5.3486c-.6752.615-1.4537.8147-2.3356.599-.6859-.1688-1.3116-.5637-1.8773-1.1847-.6555-.7195-1.002-1.486-1.0396-2.2995-.0393-.7758.2367-1.433.8281-1.9717.6752-.6151 1.4559-.8123 2.3423-.5917.6948.1787 1.3251.5785 1.8908 1.1995.6554.7195.9997 1.4836 1.0328 2.2921.0304.7659-.2501 1.4182-.8415 1.957zm-3.6289-1.1177c.5657.621 1.1434.983 1.7332 1.086.5432.0913 1.0292-.0583 1.4579-.4488.4929-.449.6764-.9949.5507-1.6379-.1028-.5286-.3989-1.0615-.8883-1.5987-.5656-.621-1.1456-.9854-1.7399-1.0933-.5567-.1062-1.0494.036-1.4781.4266-.4879.4444-.6647.9978-.5304 1.66.1072.5335.4056 1.0689.8949 1.6061zm8.3864-3.2162c-.6752.6151-1.4537.8148-2.3356.5991-.6858-.1689-1.3116-.5638-1.8773-1.1847-.6554-.7196-1.002-1.4861-1.0396-2.2995-.0393-.7758.2367-1.4331.8281-1.9718.6752-.615 1.456-.8123 2.3423-.5916.6949.1787 1.3251.5785 1.8908 1.1995.6555.7195.9997 1.4835 1.0328 2.292.0304.766-.2501 1.4183-.8415 1.957zm-3.6289-1.1176c.5657.6209 1.1435.9829 1.7333 1.0859.5431.0914 1.0291-.0582 1.4579-.4488.4928-.4489.6763-.9949.5506-1.6378-.1028-.5286-.3989-1.0615-.8882-1.5987-.5657-.621-1.1457-.9855-1.74-1.0934-.5566-.1062-1.0493.0361-1.4781.4266-.4879.4445-.6647.9978-.5304 1.6601.1073.5335.4056 1.0689.8949 1.6061zm8.3864-3.2162c-.6752.6151-1.4537.8147-2.3356.599-.6858-.1688-1.3116-.5637-1.8772-1.1847-.6555-.7195-1.002-1.486-1.0396-2.2995-.0394-.7757.2366-1.433.828-1.9717.6752-.6151 1.456-.8123 2.3424-.5917.6948.1787 1.325.5785 1.8907 1.1995.6555.7196.9998 1.4836 1.0329 2.2921.0304.7659-.2502 1.4183-.8416 1.957zm-3.6288-1.1177c.5656.621 1.1434.983 1.7332 1.086.5432.0914 1.0291-.0582 1.4579-.4488.4928-.449.6764-.9949.5506-1.6379-.1028-.5286-.3988-1.0615-.8882-1.5987-.5657-.621-1.1457-.9854-1.74-1.0933-.5566-.1062-1.0493.036-1.4781.4266-.4879.4445-.6647.9978-.5304 1.66.1073.5336.4056 1.0689.895 1.6061zm3.5953-6.1293 3.5422 3.8884-.547.4984-4.2628-4.6795.6801-.6196c1.04.4685 2.4984 1.2231 4.3754 2.2638.3908.2212.6876.3837.8904.4875-.1025-.2313-.1899-.4312-.2623-.5998-.925-2.1242-1.5826-3.7617-1.9725-4.9125l.6653-.6061 4.2628 4.6795-.5471.4984-3.5489-3.8959c.4979 1.0614 1.2177 2.782 2.1591 5.1619l-.4953.4512c-1.8974-.9049-3.5439-1.7768-4.9394-2.6157z" fill="#3889e8" fill-opacity=".5"/></svg>