<svg fill="none" height="151" viewBox="0 0 152 151" width="152" xmlns="http://www.w3.org/2000/svg" xmlns:xlink="http://www.w3.org/1999/xlink"><clipPath id="a"><path d="m0 0h152v151h-152z"/></clipPath><g clip-path="url(#a)" fill="#fff"><path d="m123.377 16.5273c-10.092-8.67564-22.678-12.17761-35.6858-13.72485-34.6466-10.97803-65.5513 11.72615-79.04565 43.20765-14.54435 33.9314-7.62316 71.8089 23.91395 92.9699 32.1972 21.601 76.4505 12.722 101.1465-15.714 26.994-31.0798 20.332-80.3778-10.329-106.7387zm-59.3428 123.3007c-18.2673-2.583-35.9887-13.748-45.2448-29.667-8.2747-14.2337-8.2054-32.0573-4.4955-47.6037 5.7013-23.9001 22.9544-45.4704 45.5034-50.633.0339.0016.0628.0113.0966.0113 8.1137.2388 16.6845.2527 25.062 1.1527.793.2469 1.5857.4922 2.3853.782 1.32.4783 2.4758.4169 3.4422.023 9.0388 1.5113 17.6696 4.388 25.0336 10.1443 16.29 12.7337 24.878 35.6954 24.407 55.8066-.885 37.9078-40.043 65.0938-76.1898 59.9838z"/><path d="m55.0647 68.4797c7.5727 0 7.5727-11.667 0-11.667-7.5727-.0003-7.5727 11.667 0 11.667z"/><path d="m95.5805 69.0621c7.5745 0 7.5745-11.6663 0-11.6663-7.5718 0-7.5718 11.6663 0 11.6663z"/><path d="m43.8669 97.027c-5.541 5.149 2.7809 13.382 8.3053 8.249 14.0857-13.0865 32.2369-14.4716 46.3053-.583 5.3755 5.307 13.6825-2.94 8.3035-8.2503-18.6536-18.4127-44.1706-16.8276-62.9141.5843z"/></g></svg>