<svg fill="none" height="52" viewBox="0 0 52 52" width="52" xmlns="http://www.w3.org/2000/svg"><path d="m26 0c-10.7507 0-20.00741 6.54072-23.95703 15.875-.10789.2428-.16633.5046-.17191.7703-.00558.2656.04182.5297.13942.7768s.24346.4723.42905.6624c.18558.1901.40719.3413.65187.4448.24468.1036.50753.1573.77321.1581.26568.0009.52887-.0512.77418-.1533.24532-.102.46786-.2518.65463-.4408.18676-.1889.33401-.4132.43314-.6597 3.33838-7.88973 11.14414-13.4336 20.27344-13.4336 5.3861 0 10.2966 1.92436 14.1211 5.12891.2013.16884.434.29637.6846.37531.2506.07893.5143.10771.7761.08471.2617-.02301.5164-.09735.7494-.21879.233-.12143.4398-.28758.6086-.48896.1688-.20137.2963-.43403.3752-.68468.0788-.25064.1076-.51437.0845-.77612s-.0975-.51639-.219-.74938c-.1215-.23298-.2877-.43975-.4891-.6085-4.5155-3.78346-10.3495-6.0625-16.6914-6.0625zm0 8c-2.0982 0-4.1213.35891-6 1.02344-.2478.08768-.4759.22332-.6713.39918-.1954.17585-.3542.38847-.4674.62568-.1132.2373-.1786.4945-.1924.757s.0243.5251.112.7729.2234.4759.3993.6713c.1759.1953.3885.3541.6258.4673s.4945.1785.757.1922c.2625.0138.5252-.0244.7729-.1121 1.4573-.5155 3.0223-.7969 4.6641-.7969 7.755 0 14 6.245 14 14 0 5.9023-1.9766 19.3398-1.9766 19.3398-.0501.2645-.0464.5363.011.7992s.1673.5116.323.731c.1558.2195.3542.4053.5834.5463.2293.1409.4846.2342.7507.2742.2662.04.5376.0258.7982-.0416.2605-.0674.5048-.1867.7181-.3507.2134-.1641.3914-.3695.5235-.604.1321-.2344.2155-.4931.2453-.7606 0 0 2.0234-13.1879 2.0234-19.9336 0-9.917-8.083-18-18-18zm21.0078 4.4492c-.3466.0059-.6858.1018-.9842.2783s-.5458.4276-.7179.7285c-.1721.301-.2631.6415-.264.9882-.0008.3466.0884.6876.2591.9894 1.7197 3.1369 2.6992 6.7292 2.6992 10.5664 0 2.1925-.3225 4.3009-.9219 6.2969-.0867.2543-.1212.5236-.1015.7916s.0932.5293.2161.7683.2927.4507.4992.6226c.2066.172.4457.3005.703.3779.2573.0775.5276.1023.7947.073.2672-.0293.5256-.1122.76-.2436.2345-.1314.44-.3087.6043-.5214.1644-.2126.2842-.4561.3523-.7161.7087-2.36 1.0938-4.8617 1.0938-7.4492 0-4.5188-1.1591-8.7811-3.1914-12.4883-.1729-.326-.4327-.5977-.7505-.7853-.3178-.1875-.6813-.2834-1.0503-.2772zm-33.7109 1.6914c-.2906.0154-.5742.094-.8313.2302-.257.1363-.4812.327-.657.5589-2.38378 3.0517-3.8086 6.906-3.8086 11.0703 0 9.4075-1.55859 15.5156-1.55859 15.5156-.07272.257-.09325.5259-.06037.7909.03288.2651.1185.5208.2518.7522.13331.2314.31161.4338.52439.5952.21277.1614.45571.2785.71448.3445.25878.066.52815.0796.79223.0398s.51752-.1321.74537-.2714c.22785-.1392.4255-.3228.5813-.5397.15579-.2169.26659-.4628.32579-.7232 0 0 1.6836-6.6474 1.6836-16.5039 0-3.2557 1.1047-6.233 2.9609-8.6094.2418-.3009.3912-.6654.4304-1.0494s-.0335-.7711-.2094-1.1147c-.176-.3436-.4475-.6289-.782-.8216s-.7176-.2845-1.103-.2643zm12.7031 1.8594c-5.499 0-10 4.501-10 10 0 14.0365-1.9336 21.375-1.9336 21.375-.0783.2576-.1037.5284-.0749.7961.0289.2677.1116.5268.243.7618s.309.4411.5219.6058c.213.1647.4571.2848.7176.3529.2604.0682.532.083.7984.0437.2663-.0393.522-.132.7517-.2726.2297-.1405.4286-.3259.5849-.5452s.2667-.4678.3246-.7308c0 0 2.0664-7.9752 2.0664-22.3867 0-3.337 2.663-6 6-6s6 2.663 6 6c0 2.3954-.1018 4.8958-.2578 7.3281-.019.2634.0143.528.0981.7785s.2163.4819.39.6808c.1737.199.385.3616.6219.4785.2368.1168.4945.1856.758.2024.2636.0167.5279-.0189.7776-.1048.2498-.0859.48-.2204.6775-.3958.1975-.1753.3583-.3881.4731-.6259.1149-.2378.1815-.4961.196-.7598.16-2.4956.2656-5.0734.2656-7.582 0-5.499-4.501-10-10-10zm-24.03906 6.3516c-.49495.0235-.963548.2299-1.315006.5792-.351457.3493-.5607545.8166-.5873402 1.3114-.0390318.5811-.0585938 1.1678-.0585938 1.7578 0 2.1895.273994 4.3143.785156 6.3438.060875.2581.172472.5015.328294.7161.15583.2146.35277.396.57938.5338.2266.1378.47834.2291.74057.2687s.52971.0266.78688-.0381c.25718-.0648.49891-.18.71113-.339.21223-.1591.39071-.3587.52506-.5874.13435-.2286.2219-.4817.25753-.7445.03564-.2628.01867-.53-.04994-.7862-.43283-1.7185-.66406-3.5127-.66406-5.3672 0-.502.01782-.9974.05078-1.4883.02308-.2835-.01458-.5687-.11047-.8365s-.24779-.5121-.44558-.7165c-.19779-.2045-.4369-.3644-.70139-.4691-.26449-.1046-.54827-.1517-.8324-.138zm24.00786 1.6211c-.5298.0082-1.0346.2264-1.4037.6064-.3691.3801-.5724.8911-.5651 1.4209 0 5.4384-.2935 9.9244-.6758 13.4609-.0334.2637-.014.5314.0572.7875s.1927.4954.3574.704c.1648.2086.3694.3822.602.5108.2327.1286.4886.2095.7528.2381.2643.0286.5316.0042.7863-.0718.2547-.0759.4917-.2018.6972-.3704s.3754-.3764.4996-.6114c.1243-.235.2004-.4923.2241-.7571.3977-3.6794.6992-8.309.6992-13.8906.0037-.2676-.0464-.5332-.1472-.7811-.1009-.2478-.2504-.473-.4398-.662s-.4148-.3382-.6629-.4385c-.2481-.1004-.5138-.1499-.7813-.1457zm6.9453 16.4961c-.4957-.0006-.974.1829-1.3421.5149-.368.332-.5997.7888-.6501 1.2819-.4634 4.0043-.8985 6.7149-.8985 6.7149-.0416.2596-.0317.5248.0292.7806.0609.2557.1716.497.3258.71.1542.2129.3488.3935.5727.5312.2239.1378.4728.2301.7324.2716.2596.0416.5249.0316.7806-.0294.2558-.0609.497-.1717.7099-.3259.213-.1542.3934-.3489.5311-.5728.1377-.224.23-.4729.2715-.7325 0 0 .4492-2.803.9218-6.8867.0367-.2822.0127-.5689-.0703-.841-.0829-.2721-.223-.5234-.4108-.7371s-.4191-.3849-.6783-.5021-.5404-.1778-.8249-.1776zm-8.8633 5.289c-.4609-.0004-.9078.1584-1.2651.4495s-.6031.6967-.6959 1.1482c-.305 1.3948-.5 2.0078-.5 2.0078-.0795.2508-.1088.5148-.0862.777.0227.2622.0968.5173.2182.7507.1214.2335.2877.4407.4893.6098.2016.169.4347.2967.6857.3756.251.0788.5151.1074.7772.084.2621-.0233.517-.0982.7502-.2202.2331-.1221.4398-.2889.6083-.491.1686-.2021.2956-.4355.3737-.6867 0 0 .259-.8384.5899-2.3516.0681-.2931.0693-.5978.0033-.8914s-.1973-.5685-.3843-.8043-.4248-.4263-.6956-.5575c-.2709-.1311-.5678-.1994-.8687-.1999z" fill="#000"/></svg>